<?xml version="1.0" encoding="UTF-8" standalone="no"?>
<svg xmlns="http://www.w3.org/2000/svg" width="26" height="260" viewBox="0 0 26 260" >
  <g id="sprite" fill="#ffffff">
    <path
       id="zoomIn"
       d="m 12.5,8.99999 c -0.277,0 -0.5,0.223 -0.5,0.5 l 0,2.50002 -2.5,0 c -0.277,0 -0.5,0.223 -0.5,0.5 l 0,1 c 0,0.277 0.223,0.5 0.5,0.5 l 2.5,0 0,2.5 c 0,0.277 0.223,0.5 0.5,0.5 l 1,0 c 0.277,0 0.5,-0.223 0.5,-0.5 l 0,-2.5 2.5,0 c 0.277,0 0.5,-0.223 0.5,-0.5 l 0,-1 c 0,-0.277 -0.223,-0.5 -0.5,-0.5 l -2.5,0 0,-2.50002 c 0,-0.277 -0.223,-0.5 -0.5,-0.5 z" />
    <path
       id="zoomOut"
       d="M 9.5,38 C 9.223,38 9,38.223 9,38.5 l 0,1 C 9,39.777 9.223,40 9.5,40 l 7,0 c 0.277,0 0.5,-0.223 0.5,-0.5 l 0,-1 C 17,38.223 16.777,38 16.5,38 Z" />
    <path
       id="close"
       d="m 10,61 -1,1 3,3 -3,3 1,1 3,-3 3,3 1,-1 -3,-3 3,-3 -1,-1 -3,3 z" />
    <path
       id="info"
       d="m 13,83.99999 c -3.866,0 -7,3.134 -7,7.00002 0,3.866 3.134,7 7,7 3.8659,0 7,-3.134 7,-7 0,-3.86602 -3.1341,-7.00002 -7,-7.00002 z m -0.5,3 1,0 c 0.277,0 0.5,0.223 0.5,0.5 l 0,1 c 0,0.27702 -0.223,0.50002 -0.5,0.50002 l -1,0 c -0.277,0 -0.5,-0.223 -0.5,-0.50002 l 0,-1 c 0,-0.277 0.223,-0.5 0.5,-0.5 z m 0,3.00002 1,0 c 0.277,0 0.5,0.223 0.5,0.5 l 0,4 c 0,0.277 -0.223,0.5 -0.5,0.5 l -1,0 c -0.277,0 -0.5,-0.223 -0.5,-0.5 l 0,-4 c 0,-0.277 0.223,-0.5 0.5,-0.5 z" />
    <path
       id="layers"
       d="m 13,110.96875 c -0.1012,-5e-4 -0.19265,0.0145 -0.28125,0.0625 L 6,113 l 0,1 6.71875,1.9375 C 12.80675,115.9855 12.8995,116 13,116 c 0.1001,0 0.19325,-0.0145 0.28125,-0.0625 L 20,114 l 0,-1 -6.71875,-1.96875 c -0.088,-0.048 -0.18155,-0.0625 -0.28125,-0.0625 z M 6,118 l 6.71875,1.9375 C 12.80675,119.9855 12.8995,120 13,120 c 0.1001,0 0.19325,-0.0145 0.28125,-0.0625 L 20,118 l 0,-2 -6.71875,1.9375 C 13.19325,117.9855 13.1001,118 13,118 c -0.1005,0 -0.19325,-0.0145 -0.28125,-0.0625 L 6,116 Z m 0,4 6.71875,1.9375 C 12.80675,123.9855 12.8995,124 13,124 c 0.1001,0 0.19325,-0.0145 0.28125,-0.0625 L 20,122 l 0,-2 -6.71875,1.9375 C 13.19325,121.9855 13.1001,122 13,122 c -0.1005,0 -0.19325,-0.0145 -0.28125,-0.0625 L 6,120 Z" />
    <path
       id="share"
       d="m 14.3438,136.99999 2.125,2.125 -4.25,4.25002 1.4062,1.4062 4.25,-4.25002 2.125,2.12502 0,-5.65622 z m -6.3438,1 -1,1 0,9.00002 1,1 10,0 1,-1 0,-4 -1,-1 -1,1 0,3 -8,0 0,-7.00002 4,0 1,-1 -1,-1 z" />
    <path
       id="search"
       d="m 11.5,162.99999 c -2.4853,0 -4.5,2.0147 -4.5,4.50002 0,2.4853 2.0147,4.5 4.5,4.5 0.854,0 1.6635,-0.2431 2.3437,-0.6563 l 3.6563,3.6563 1.5,-1.5 -3.6563,-3.6563 c 0.4132,-0.6802 0.6563,-1.4897 0.6563,-2.3437 0,-2.48532 -2.0147,-4.50002 -4.5,-4.50002 z m 0,1.5 c 1.6568,0 3,1.3431 3,3.00002 0,1.6568 -1.3432,3 -3,3 -1.6569,0 -3,-1.3432 -3,-3 0,-1.65692 1.3431,-3.00002 3,-3.00002 z" />
  </g>
</svg>
